HIERARCHY
ROOT ui
{
	 OFFSET 0 0 0
	 CHANNELS 3 XPosition YPosition Z Position
	 EndSite
	 {
	 OFFSET 0 -1 0
	 }
}
ROOT li
{
	 OFFSET 0 0 0
	 CHANNELS 3 XPosition YPosition Z Position
	 EndSite
	 {
	 OFFSET 0 -1 0
	 }
}
ROOT ul
{
	 OFFSET 0 0 0
	 CHANNELS 3 XPosition YPosition Z Position
	 EndSite
	 {
	 OFFSET 0 -1 0
	 }
}
ROOT ll
{
	 OFFSET 0 0 0
	 CHANNELS 3 XPosition YPosition Z Position
	 EndSite
	 {
	 OFFSET 0 -1 0
	 }
}
ROOT tt
{
	 OFFSET 0 0 0
	 CHANNELS 3 XPosition YPosition Z Position
	 EndSite
	 {
	 OFFSET 0 -1 0
	 }
}
ROOT tb
{
	 OFFSET 0 0 0
	 CHANNELS 3 XPosition YPosition Z Position
	 EndSite
	 {
	 OFFSET 0 -1 0
	 }
}
ROOT td
{
	 OFFSET 0 0 0
	 CHANNELS 3 XPosition YPosition Z Position
	 EndSite
	 {
	 OFFSET 0 -1 0
	 }
}
ROOT v
{
	 OFFSET 0 0 0
	 CHANNELS 3 XPosition YPosition Z Position
	 EndSite
	 {
	 OFFSET 0 -1 0
	 }
}
ROOT bn
{
	 OFFSET 0 0 0
	 CHANNELS 3 XPosition YPosition Z Position
	 EndSite
	 {
	 OFFSET 0 -1 0
	 }
}
MOTION
Frames: 13
Frame Time: 0.002
-0.016103317260742187	1.892089992761612E-4	0		0.4048050537109375	-2.3191669921875	0		-1.1835673828125	-0.05469945526123047	0		-0.8146183471679688	-2.36864990234375	0		1.3156954345703125	-0.54322314453125	0		2.89511328125	-0.11153861236572266	0		4.41441748046875	0.04960688781738281	0		5.55126220703125	0.22835198974609375	0		-0.5077507934570312	5.8122041015625	0		
-0.012965079307556152	1.0524199903011322E-4	0		0.43680010986328127	-2.3195048828125	0		-1.174471923828125	-0.05975885772705078	0		-0.8016886596679688	-2.37676318359375	0		1.3067850341796876	-0.5452943115234375	0		2.902283935546875	-0.10683277893066406	0		4.42059814453125	0.054227397918701174	0		5.55639111328125	0.24140980529785155	0		-0.5042560424804687	5.812150390625	0		
-0.01002335262298584	2.659600041806698E-5	0		0.4235714111328125	-2.323483642578125	0		-1.1634786376953126	-0.05283142852783203	0		-0.8308331298828125	-2.369541259765625	0		1.3096939697265626	-0.5454521484375	0		2.90629052734375	-0.0980946044921875	0		4.42354296875	0.05388265609741211	0		5.560662109375	0.2527723083496094	0		-0.48688665771484374	5.82198974609375	0		
-0.007293535232543945	-4.552900046110153E-5	0		0.44623077392578125	-2.31574072265625	0		-1.166711669921875	-0.047789432525634765	0		-0.8282396240234375	-2.369566162109375	0		1.31542431640625	-0.5416243286132812	0		2.89688720703125	-0.11423821258544922	0		4.43337158203125	0.06549913787841796	0		5.562603515625	0.2521007995605469	0		-0.4838218078613281	5.82194482421875	0		
-0.0017645089626312255	0.0028658139705657957	0		0.41961968994140625	-2.314596435546875	0		-1.1682413330078125	-0.05175897216796875	0		-0.7658645629882812	-2.370068359375	0		1.3348592529296874	-0.5468966674804687	0		2.9245380859375	-0.09566108703613281	0		4.42878369140625	0.05325151824951172	0		5.562205078125	0.2394082489013672	0		-0.48001043701171875	5.8208984375	0		
-0.002519567966461182	-1.6573899984359742E-4	0		0.4467325439453125	-2.319875244140625	0		-1.165974853515625	-0.051757007598876956	0		-0.8386864624023438	-2.36647998046875	0		1.3111585693359376	-0.539808837890625	0		2.915745849609375	-0.10277301025390626	0		4.43105517578125	0.05297574996948242	0		5.563818359375	0.23884059143066405	0		-0.35934326171875	5.8339111328125	0		
-0.07748506164550781	0.0014141110181808472	0		0.43060415649414063	-2.325795166015625	0		-1.1579942626953126	-0.05679985427856445	0		-0.753877197265625	-2.380163330078125	0		1.3191092529296875	-0.5459627075195312	0		2.90878173828125	-0.1008770751953125	0		4.43308154296875	0.05273062515258789	0		5.558125	0.23847535705566406	0		-0.4761596984863281	5.82184912109375	0		
0.001279173970222473	-2.486159950494766E-4	0		0.43632623291015626	-2.3208818359375	0		-1.2281783447265624	-0.05120146560668945	0		-0.8201140747070312	-2.3696142578125	0		1.325919189453125	-0.5390934448242187	0		2.930421142578125	-0.11719358062744141	0		4.43195654296875	0.06453983306884765	0		5.57292041015625	0.2325723114013672	0		-0.47216690063476563	5.8198154296875	0		
0.005833209991455078	0.0027002770900726317	0		0.43978793334960936	-2.318940673828125	0		-1.1506614990234374	-0.05280715560913086	0		-0.7446975708007812	-2.37321826171875	0		1.3484202880859375	-0.5403402099609375	0		2.935159912109375	-0.09135169982910156	0		4.43348876953125	0.06435276794433593	0		5.56336767578125	0.24969416809082032	0		-0.4913763427734375	5.825978515625	0		
0.004100640773773193	-2.912130057811737E-4	0		0.45501113891601563	-2.318086669921875	0		-1.1593626708984375	-0.051702922821044925	0		-0.8324314575195313	-2.366476318359375	0		1.3236458740234376	-0.5461863403320313	0		2.91930908203125	-0.10832395935058593	0		4.43768359375	0.05216604232788086	0		5.5685244140625	0.2371580047607422	0		-0.5190477905273437	5.80721826171875	0		
-0.07182472991943359	0.00133945894241333	0		0.42700570678710936	-2.31786669921875	0		-1.152342041015625	-0.05672348022460937	0		-0.7584832153320312	-2.37206103515625	0		1.3246929931640625	-0.5462326049804688	0		2.914427734375	-0.10136912536621094	0		4.42875732421875	0.05310821533203125	0		5.5621474609375	0.2370027618408203	0		-0.48376806640625	5.8119462890625	0		
0.006012791156768798	-2.943919897079468E-4	0		0.43672283935546874	-2.32594970703125	0		-1.1514952392578126	-0.05668809127807617	0		-0.8197236328125	-2.37452197265625	0		1.3255262451171874	-0.5462662353515625	0		2.921215087890625	-0.10849663543701171	0		4.4395986328125	0.05190509033203125	0		5.5698818359375	0.23660040283203124	0		-0.4827576599121094	5.811962890625	0		
0.0066647958755493165	-2.8242099285125734E-4	0		0.4393318786621094	-2.323965576171875	0		-1.1468115234375	-0.05267993545532226	0		-0.7831503295898438	-2.37678857421875	0		1.326164306640625	-0.5462880249023437	0		2.910981201171875	-0.09446817779541015	0		4.43735205078125	0.06382814025878907	0		5.5661064453125	0.24857406616210936	0		-0.4819568786621094	5.8119873046875	0		
